<?xml version="1.0" standalone="no"?>
<!DOCTYPE svg PUBLIC "-//W3C//DTD SVG 20010904//EN"
 "http://www.w3.org/TR/2001/REC-SVG-20010904/DTD/svg10.dtd">
<svg version="1.0" xmlns="http://www.w3.org/2000/svg"
 width="320.000000pt" height="320.000000pt" viewBox="0 0 320.000000 320.000000"
 preserveAspectRatio="xMidYMid meet">
<metadata>
Created by potrace 1.11, written by Peter Selinger 2001-2013
</metadata>
<g transform="translate(0.000000,320.000000) scale(0.100000,-0.100000)"
fill="#000000" stroke="none">
<path d="M2980 3193 c-661 -49 -1269 -287 -1785 -699 -141 -113 -376 -348
-489 -489 -431 -541 -669 -1174 -702 -1867 l-7 -138 500 0 500 0 7 107 c37
577 269 1085 672 1474 385 371 866 580 1417 615 l107 7 0 498 0 499 -87 -2
c-49 -1 -108 -3 -133 -5z"/>
<path d="M3015 1189 c-160 -23 -361 -104 -502 -201 -99 -68 -233 -202 -301
-301 -126 -183 -211 -438 -212 -634 l0 -53 350 0 c193 0 350 3 350 8 0 4 5 36
11 72 24 154 131 297 271 364 58 28 162 55 211 56 4 0 7 158 7 350 l0 350 -62
-1 c-35 -1 -90 -5 -123 -10z"/>
</g>
</svg>
